<?xml version="1.0" encoding="UTF-8"?>
<svg xmlns="http://www.w3.org/2000/svg" xmlns:xlink="http://www.w3.org/1999/xlink" width="30pt" height="30pt" viewBox="0 0 30 30" version="1.1">
<g id="surface1">
<path style=" stroke:none;fill-rule:nonzero;fill:rgb(23.137255%,34.901961%,59.607843%);fill-opacity:1;" d="M 28.253906 29.902344 C 29.164062 29.902344 29.902344 29.164062 29.902344 28.253906 L 29.902344 1.746094 C 29.902344 0.835938 29.164062 0.0976562 28.253906 0.0976562 L 1.746094 0.0976562 C 0.835938 0.0976562 0.0976562 0.835938 0.0976562 1.746094 L 0.0976562 28.253906 C 0.0976562 29.164062 0.835938 29.902344 1.746094 29.902344 Z M 28.253906 29.902344 "/>
<path style=" stroke:none;fill-rule:nonzero;fill:rgb(100%,100%,100%);fill-opacity:1;" d="M 20.660156 29.902344 L 20.660156 18.359375 L 24.535156 18.359375 L 25.117188 13.863281 L 20.660156 13.863281 L 20.660156 10.992188 C 20.660156 9.6875 21.023438 8.800781 22.890625 8.800781 L 25.269531 8.800781 L 25.269531 4.777344 C 24.859375 4.722656 23.445312 4.601562 21.800781 4.601562 C 18.367188 4.601562 16.015625 6.699219 16.015625 10.546875 L 16.015625 13.863281 L 12.132812 13.863281 L 12.132812 18.359375 L 16.015625 18.359375 L 16.015625 29.902344 Z M 20.660156 29.902344 "/>
</g>
</svg>
